<?xml version="1.0" encoding="UTF-8" standalone="no"?>
<!DOCTYPE svg PUBLIC "-//W3C//DTD SVG 1.1//EN"
 "http://www.w3.org/Graphics/SVG/1.1/DTD/svg11.dtd">
<!-- Generated by graphviz version 2.26.0 (20091210.2329)
 -->
<!-- Title: G Pages: 1 -->
<svg width="1592pt" height="858pt"
 viewBox="0.00 0.00 1592.00 858.00" xmlns="http://www.w3.org/2000/svg" xmlns:xlink="http://www.w3.org/1999/xlink">
<g id="graph1" class="graph" transform="scale(1 1) rotate(0) translate(4 854)">
<title>G</title>
<polygon fill="white" stroke="white" points="-4,5 -4,-854 1589,-854 1589,5 -4,5"/>
<!-- http://rdf.glyconavi.org/CarTN/CarTN10 -->
<g id="node1" class="node"><title>http://rdf.glyconavi.org/CarTN/CarTN10</title>
<a xlink:href="http://www.kanzaki.com/works/2009/pub/graph-draw?u=http%3A%2F%2Frdf.glyconavi.org%2FCarTN%2FCarTN10" xlink:title="cartn:CarTN10">
<ellipse fill="#b7ffaf" stroke="#b7ffaf" cx="50" cy="-445" rx="49.8625" ry="18"/>
<text text-anchor="middle" x="50" y="-442.5" font-family="gothic" font-size="10.00">cartn:CarTN10</text>
</a>
</g>
<!-- http://rdfs.org/ns/void#rootResource -->
<g id="node2" class="node"><title>http://rdfs.org/ns/void#rootResource</title>
<a xlink:href="http://www.kanzaki.com/works/2009/pub/graph-draw?u=http%3A%2F%2Frdfs.org%2Fns%2Fvoid%23rootResource" xlink:title="void:rootResource">
<ellipse fill="#b7ffaf" stroke="#b7ffaf" cx="293" cy="-553" rx="59.0964" ry="18"/>
<text text-anchor="middle" x="293" y="-550.5" font-family="gothic" font-size="10.00">void:rootResource</text>
</a>
</g>
<!-- http://rdf.glyconavi.org/CarTN/CarTN10&#45;&gt;http://rdfs.org/ns/void#rootResource -->
<g id="edge2" class="edge"><title>http://rdf.glyconavi.org/CarTN/CarTN10&#45;&gt;http://rdfs.org/ns/void#rootResource</title>
<path fill="none" stroke="black" d="M69.8044,-461.688C82.8524,-472.054 100.671,-485.061 118,-494 156.026,-513.617 201.963,-528.815 237.23,-538.87"/>
<polygon fill="black" stroke="black" points="236.305,-542.245 246.878,-541.569 238.191,-535.504 236.305,-542.245"/>
<text text-anchor="middle" x="156" y="-528" font-family="gothic" font-size="10.00">rdf:type</text>
</g>
<!-- literal_0 -->
<g id="node3" class="node"><title>literal_0</title>
<polygon fill="#ffe666" stroke="#ffe666" points="321,-517 265,-517 265,-481 321,-481 321,-517"/>
<text text-anchor="middle" x="293" y="-496.5" font-family="gothic" font-size="10.00">CarTN10</text>
</g>
<!-- http://rdf.glyconavi.org/CarTN/CarTN10&#45;&gt;literal_0 -->
<g id="edge4" class="edge"><title>http://rdf.glyconavi.org/CarTN/CarTN10&#45;&gt;literal_0</title>
<path fill="none" stroke="black" d="M90.9342,-455.491C99.8417,-457.702 109.225,-459.976 118,-462 164.957,-472.83 219.289,-484.126 254.801,-491.343"/>
<polygon fill="black" stroke="black" points="254.246,-494.802 264.742,-493.357 255.636,-487.941 254.246,-494.802"/>
<text text-anchor="middle" x="156" y="-481" font-family="gothic" font-size="10.00">dcterms:identifier</text>
</g>
<!-- literal_1 -->
<g id="node4" class="node"><title>literal_1</title>
<polygon fill="#ffe666" stroke="#ffe666" points="345,-463 241,-463 241,-427 345,-427 345,-463"/>
<text text-anchor="middle" x="293" y="-442.5" font-family="gothic" font-size="10.00">CarTN ID: CarTN10</text>
</g>
<!-- http://rdf.glyconavi.org/CarTN/CarTN10&#45;&gt;literal_1 -->
<g id="edge6" class="edge"><title>http://rdf.glyconavi.org/CarTN/CarTN10&#45;&gt;literal_1</title>
<path fill="none" stroke="black" d="M100.055,-445C137.839,-445 189.92,-445 230.45,-445"/>
<polygon fill="black" stroke="black" points="230.489,-448.5 240.489,-445 230.489,-441.5 230.489,-448.5"/>
<text text-anchor="middle" x="156" y="-449" font-family="gothic" font-size="10.00">rdfs:label</text>
</g>
<!-- http://rdf.glyconavi.org/CarTN/CarTN10/GD3 -->
<g id="node5" class="node"><title>http://rdf.glyconavi.org/CarTN/CarTN10/GD3</title>
<a xlink:href="http://www.kanzaki.com/works/2009/pub/graph-draw?u=http%3A%2F%2Frdf.glyconavi.org%2FCarTN%2FCarTN10%2FGD3" xlink:title="cartn:CarTN10/GD3">
<ellipse fill="#b7ffaf" stroke="#b7ffaf" cx="293" cy="-391" rx="64.021" ry="18"/>
<text text-anchor="middle" x="293" y="-388.5" font-family="gothic" font-size="10.00">cartn:CarTN10/GD3</text>
</a>
</g>
<!-- http://rdf.glyconavi.org/CarTN/CarTN10&#45;&gt;http://rdf.glyconavi.org/CarTN/CarTN10/GD3 -->
<g id="edge8" class="edge"><title>http://rdf.glyconavi.org/CarTN/CarTN10&#45;&gt;http://rdf.glyconavi.org/CarTN/CarTN10/GD3</title>
<path fill="none" stroke="black" d="M90.9342,-434.509C99.8417,-432.298 109.225,-430.024 118,-428 155.295,-419.399 197.242,-410.503 230.717,-403.591"/>
<polygon fill="black" stroke="black" points="231.73,-406.956 240.819,-401.512 230.319,-400.099 231.73,-406.956"/>
<text text-anchor="middle" x="156" y="-432" font-family="gothic" font-size="10.00">sio:SIO_000008</text>
</g>
<!-- http://rdf.glyconavi.org/CarTN/CarTN10/trivialname -->
<g id="node6" class="node"><title>http://rdf.glyconavi.org/CarTN/CarTN10/trivialname</title>
<a xlink:href="http://www.kanzaki.com/works/2009/pub/graph-draw?u=http%3A%2F%2Frdf.glyconavi.org%2FCarTN%2FCarTN10%2Ftrivialname" xlink:title="cartn:CarTN10/trivialname">
<ellipse fill="#b7ffaf" stroke="#b7ffaf" cx="293" cy="-153" rx="80.141" ry="18"/>
<text text-anchor="middle" x="293" y="-150.5" font-family="gothic" font-size="10.00">cartn:CarTN10/trivialname</text>
</a>
</g>
<!-- http://rdf.glyconavi.org/CarTN/CarTN10&#45;&gt;http://rdf.glyconavi.org/CarTN/CarTN10/trivialname -->
<g id="edge10" class="edge"><title>http://rdf.glyconavi.org/CarTN/CarTN10&#45;&gt;http://rdf.glyconavi.org/CarTN/CarTN10/trivialname</title>
<path fill="none" stroke="black" d="M64.473,-427.609C105.472,-378.342 222.573,-237.628 271.308,-179.066"/>
<polygon fill="black" stroke="black" points="274.279,-180.968 277.986,-171.042 268.899,-176.49 274.279,-180.968"/>
<text text-anchor="middle" x="156" y="-362" font-family="gothic" font-size="10.00">sio:SIO_000008</text>
</g>
<!-- literal_5 -->
<g id="node12" class="node"><title>literal_5</title>
<polygon fill="#ffe666" stroke="#ffe666" points="700,-355 596,-355 596,-319 700,-319 700,-355"/>
<text text-anchor="middle" x="648" y="-334.5" font-family="gothic" font-size="10.00">glycoconjugate GD3</text>
</g>
<!-- http://rdf.glyconavi.org/CarTN/CarTN10/GD3&#45;&gt;literal_5 -->
<g id="edge22" class="edge"><title>http://rdf.glyconavi.org/CarTN/CarTN10/GD3&#45;&gt;literal_5</title>
<path fill="none" stroke="black" d="M336.02,-377.644C353.277,-372.714 373.44,-367.486 392,-364 457.267,-351.741 533.016,-344.617 585.09,-340.796"/>
<polygon fill="black" stroke="black" points="585.454,-344.279 595.179,-340.076 584.955,-337.297 585.454,-344.279"/>
<text text-anchor="middle" x="445" y="-368" font-family="gothic" font-size="10.00">rdfs:label</text>
</g>
<!-- http://rdf.glyconavi.org/CarTN/CarTN10/GD3/carbohydrate -->
<g id="node13" class="node"><title>http://rdf.glyconavi.org/CarTN/CarTN10/GD3/carbohydrate</title>
<a xlink:href="http://www.kanzaki.com/works/2009/pub/graph-draw?u=http%3A%2F%2Frdf.glyconavi.org%2FCarTN%2FCarTN10%2FGD3%2Fcarbohydrate" xlink:title="cartn:CarTN10/GD3/carbohydrate">
<ellipse fill="#b7ffaf" stroke="#b7ffaf" cx="648" cy="-530" rx="100.956" ry="18"/>
<text text-anchor="middle" x="648" y="-527.5" font-family="gothic" font-size="10.00">cartn:CarTN10/GD3/carbohydrate</text>
</a>
</g>
<!-- http://rdf.glyconavi.org/CarTN/CarTN10/GD3&#45;&gt;http://rdf.glyconavi.org/CarTN/CarTN10/GD3/carbohydrate -->
<g id="edge24" class="edge"><title>http://rdf.glyconavi.org/CarTN/CarTN10/GD3&#45;&gt;http://rdf.glyconavi.org/CarTN/CarTN10/GD3/carbohydrate</title>
<path fill="none" stroke="black" d="M347.783,-400.622C357.639,-404.577 366.99,-410.149 374,-418 399.719,-446.805 363.318,-477.145 392,-503 438.875,-545.254 511.93,-549.108 568.02,-544.069"/>
<polygon fill="black" stroke="black" points="568.688,-547.52 578.286,-543.032 567.984,-540.555 568.688,-547.52"/>
<text text-anchor="middle" x="445" y="-547" font-family="gothic" font-size="10.00">glycan:has_glycan</text>
</g>
<!-- http://rdf.glyconavi.org/CarTN/CarTN10/GD3&#45;&gt;http://rdf.glyconavi.org/CarTN/CarTN10/GD3/carbohydrate -->
<g id="edge26" class="edge"><title>http://rdf.glyconavi.org/CarTN/CarTN10/GD3&#45;&gt;http://rdf.glyconavi.org/CarTN/CarTN10/GD3/carbohydrate</title>
<path fill="none" stroke="black" d="M341.334,-403.044C352.512,-406.916 364.039,-411.844 374,-418 383.624,-423.948 382.467,-429.908 392,-436 425.156,-457.189 523.179,-490.49 587.857,-511.243"/>
<polygon fill="black" stroke="black" points="586.95,-514.627 597.541,-514.336 589.08,-507.959 586.95,-514.627"/>
<text text-anchor="middle" x="445" y="-484" font-family="gothic" font-size="10.00">sio:has_component&#45;part</text>
</g>
<!-- http://rdf.glyconavi.org/CarTN/CarTN10/GD3/aglycon -->
<g id="node14" class="node"><title>http://rdf.glyconavi.org/CarTN/CarTN10/GD3/aglycon</title>
<a xlink:href="http://www.kanzaki.com/works/2009/pub/graph-draw?u=http%3A%2F%2Frdf.glyconavi.org%2FCarTN%2FCarTN10%2FGD3%2Faglycon" xlink:title="cartn:CarTN10/GD3/aglycon">
<ellipse fill="#b7ffaf" stroke="#b7ffaf" cx="1056" cy="-391" rx="86.7978" ry="18"/>
<text text-anchor="middle" x="1056" y="-388.5" font-family="gothic" font-size="10.00">cartn:CarTN10/GD3/aglycon</text>
</a>
</g>
<!-- http://rdf.glyconavi.org/CarTN/CarTN10/GD3&#45;&gt;http://rdf.glyconavi.org/CarTN/CarTN10/GD3/aglycon -->
<g id="edge28" class="edge"><title>http://rdf.glyconavi.org/CarTN/CarTN10/GD3&#45;&gt;http://rdf.glyconavi.org/CarTN/CarTN10/GD3/aglycon</title>
<path fill="none" stroke="black" d="M357.068,-391C490.804,-391 800.358,-391 958.777,-391"/>
<polygon fill="black" stroke="black" points="958.99,-394.5 968.99,-391 958.99,-387.5 958.99,-394.5"/>
<text text-anchor="middle" x="648" y="-395" font-family="gothic" font-size="10.00">sio:has_component&#45;part</text>
</g>
<!-- http://rdf.glyconavi.org/CarTN/CarTN10/GD3&#45;&gt;http://rdf.glyconavi.org/CarTN/CarTN10/GD3/aglycon -->
<g id="edge30" class="edge"><title>http://rdf.glyconavi.org/CarTN/CarTN10/GD3&#45;&gt;http://rdf.glyconavi.org/CarTN/CarTN10/GD3/aglycon</title>
<path fill="none" stroke="black" d="M320.624,-374.667C361.584,-351.562 441.612,-310.625 516,-297 631.413,-275.861 664.244,-277.829 780,-297 864.092,-310.927 956.973,-347.203 1010.7,-370.401"/>
<polygon fill="black" stroke="black" points="1009.37,-373.643 1019.94,-374.43 1012.17,-367.226 1009.37,-373.643"/>
<text text-anchor="middle" x="648" y="-301" font-family="gothic" font-size="10.00">glycan:has_aglycon</text>
</g>
<!-- http://purl.jp/bio/12/glyco/glycan/glycoconjugate -->
<g id="node15" class="node"><title>http://purl.jp/bio/12/glyco/glycan/glycoconjugate</title>
<a xlink:href="http://www.kanzaki.com/works/2009/pub/graph-draw?u=http%3A%2F%2Fpurl.jp%2Fbio%2F12%2Fglyco%2Fglycan%2Fglycoconjugate" xlink:title="glycan:glycoconjugate">
<ellipse fill="#b7ffaf" stroke="#b7ffaf" cx="648" cy="-440" rx="69.0609" ry="18"/>
<text text-anchor="middle" x="648" y="-437.5" font-family="gothic" font-size="10.00">glycan:glycoconjugate</text>
</a>
</g>
<!-- http://rdf.glyconavi.org/CarTN/CarTN10/GD3&#45;&gt;http://purl.jp/bio/12/glyco/glycan/glycoconjugate -->
<g id="edge32" class="edge"><title>http://rdf.glyconavi.org/CarTN/CarTN10/GD3&#45;&gt;http://purl.jp/bio/12/glyco/glycan/glycoconjugate</title>
<path fill="none" stroke="black" d="M350.317,-399.151C363.975,-401.081 378.503,-403.123 392,-405 454.168,-413.645 524.855,-423.296 576.176,-430.27"/>
<polygon fill="black" stroke="black" points="575.794,-433.75 586.174,-431.628 576.736,-426.814 575.794,-433.75"/>
<text text-anchor="middle" x="445" y="-423" font-family="gothic" font-size="10.00">rdf:type</text>
</g>
<!-- literal_2 -->
<g id="node7" class="node"><title>literal_2</title>
<polygon fill="#ffe666" stroke="#ffe666" points="675,-90 621,-90 621,-54 675,-54 675,-90"/>
<text text-anchor="middle" x="648" y="-69.5" font-family="gothic" font-size="10.00">GD3</text>
</g>
<!-- http://rdf.glyconavi.org/CarTN/CarTN10/trivialname&#45;&gt;literal_2 -->
<g id="edge12" class="edge"><title>http://rdf.glyconavi.org/CarTN/CarTN10/trivialname&#45;&gt;literal_2</title>
<path fill="none" stroke="black" d="M335.015,-137.586C352.48,-131.548 373.059,-124.908 392,-120 468.829,-100.092 560.644,-84.9192 610.781,-77.3467"/>
<polygon fill="black" stroke="black" points="611.454,-80.7852 620.827,-75.8472 610.42,-73.8619 611.454,-80.7852"/>
<text text-anchor="middle" x="445" y="-124" font-family="gothic" font-size="10.00">sio:SIO_000300</text>
</g>
<!-- literal_3 -->
<g id="node8" class="node"><title>literal_3</title>
<polygon fill="#ffe666" stroke="#ffe666" points="698,-36 598,-36 598,-1.77636e-14 698,-3.55271e-15 698,-36"/>
<text text-anchor="middle" x="648" y="-15.5" font-family="gothic" font-size="10.00">trivial name of GD3</text>
</g>
<!-- http://rdf.glyconavi.org/CarTN/CarTN10/trivialname&#45;&gt;literal_3 -->
<g id="edge14" class="edge"><title>http://rdf.glyconavi.org/CarTN/CarTN10/trivialname&#45;&gt;literal_3</title>
<path fill="none" stroke="black" d="M312.455,-135.306C331.474,-118.858 361.887,-94.741 392,-80 454.701,-49.3059 533.658,-33.1716 587.185,-25.1474"/>
<polygon fill="black" stroke="black" points="587.812,-28.5932 597.206,-23.6952 586.808,-21.6656 587.812,-28.5932"/>
<text text-anchor="middle" x="445" y="-84" font-family="gothic" font-size="10.00">rdfs:label</text>
</g>
<!-- http://semanticscience.org/resource/CHEMINF_000109 -->
<g id="node9" class="node"><title>http://semanticscience.org/resource/CHEMINF_000109</title>
<a xlink:href="http://www.kanzaki.com/works/2009/pub/graph-draw?u=http%3A%2F%2Fsemanticscience.org%2Fresource%2FCHEMINF_000109" xlink:title="sio:CHEMINF_000109">
<ellipse fill="#b7ffaf" stroke="#b7ffaf" cx="648" cy="-234" rx="70.9087" ry="18"/>
<text text-anchor="middle" x="648" y="-231.5" font-family="gothic" font-size="10.00">sio:CHEMINF_000109</text>
</a>
</g>
<!-- http://rdf.glyconavi.org/CarTN/CarTN10/trivialname&#45;&gt;http://semanticscience.org/resource/CHEMINF_000109 -->
<g id="edge16" class="edge"><title>http://rdf.glyconavi.org/CarTN/CarTN10/trivialname&#45;&gt;http://semanticscience.org/resource/CHEMINF_000109</title>
<path fill="none" stroke="black" d="M335.015,-168.414C352.48,-174.452 373.059,-181.092 392,-186 453.453,-201.924 524.495,-214.818 576.127,-223.217"/>
<polygon fill="black" stroke="black" points="575.756,-226.702 586.186,-224.836 576.869,-219.791 575.756,-226.702"/>
<text text-anchor="middle" x="445" y="-214" font-family="gothic" font-size="10.00">rdf:type</text>
</g>
<!-- literal_4 -->
<g id="node10" class="node"><title>literal_4</title>
<polygon fill="#ffe666" stroke="#ffe666" points="731,-198 565,-198 565,-162 731,-162 731,-198"/>
<text text-anchor="middle" x="648" y="-178.5" font-family="gothic" font-size="10.00">NeuAcα2&#45;8NeuAcα2&#45;3Galβ1&#45;4G ...</text>
</g>
<!-- http://rdf.glyconavi.org/CarTN/CarTN10/trivialname&#45;&gt;literal_4 -->
<g id="edge18" class="edge"><title>http://rdf.glyconavi.org/CarTN/CarTN10/trivialname&#45;&gt;literal_4</title>
<path fill="none" stroke="black" d="M369.593,-158.825C423.721,-162.942 496.595,-168.485 554.209,-172.867"/>
<polygon fill="black" stroke="black" points="554.177,-176.374 564.414,-173.643 554.708,-169.394 554.177,-176.374"/>
<text text-anchor="middle" x="445" y="-173" font-family="gothic" font-size="10.00">skos:altLabel</text>
</g>
<!-- http://catalog.takara&#45;bio.co.jp/PDFS/4470.pdf -->
<g id="node11" class="node"><title>http://catalog.takara&#45;bio.co.jp/PDFS/4470.pdf</title>
<a xlink:href="http://www.kanzaki.com/works/2009/pub/graph-draw?u=http%3A%2F%2Fcatalog.takara-bio.co.jp%2FPDFS%2F4470.pdf" xlink:title="http://catalog.takara&#45;bio.co.jp/PDFS/4470.pdf">
<ellipse fill="#b7ffaf" stroke="#b7ffaf" cx="648" cy="-126" rx="131.235" ry="18"/>
<text text-anchor="middle" x="648" y="-123.5" font-family="gothic" font-size="10.00">http://catalog.takara&#45;bio.co.jp/PDFS/4470.pdf</text>
</a>
</g>
<!-- http://rdf.glyconavi.org/CarTN/CarTN10/trivialname&#45;&gt;http://catalog.takara&#45;bio.co.jp/PDFS/4470.pdf -->
<g id="edge20" class="edge"><title>http://rdf.glyconavi.org/CarTN/CarTN10/trivialname&#45;&gt;http://catalog.takara&#45;bio.co.jp/PDFS/4470.pdf</title>
<path fill="none" stroke="black" d="M367.316,-146.078C375.641,-145.352 384.001,-144.645 392,-144 433.438,-140.66 478.677,-137.364 519.443,-134.523"/>
<polygon fill="black" stroke="black" points="519.697,-138.013 529.43,-133.829 519.212,-131.03 519.697,-138.013"/>
<text text-anchor="middle" x="445" y="-148" font-family="gothic" font-size="10.00">rdfs:isDefinedBy</text>
</g>
<!-- http://rdf.glyconavi.org/CarTN/CarTN10/GD3/carbohydrate&#45;&gt;http://rdf.glyconavi.org/CarTN/CarTN10/GD3/aglycon -->
<g id="edge36" class="edge"><title>http://rdf.glyconavi.org/CarTN/CarTN10/GD3/carbohydrate&#45;&gt;http://rdf.glyconavi.org/CarTN/CarTN10/GD3/aglycon</title>
<path fill="none" stroke="black" d="M731.532,-519.777C785.457,-511.435 856.408,-497.153 916,-474 955.214,-458.765 996.169,-433.176 1023.58,-414.431"/>
<polygon fill="black" stroke="black" points="1025.75,-417.18 1031.98,-408.607 1021.77,-411.426 1025.75,-417.18"/>
<text text-anchor="middle" x="857" y="-511" font-family="gothic" font-size="10.00">sio:is&#45;connect&#45;to</text>
</g>
<!-- http://rdf.glyconavi.org/CarTN/CarTN10/GD3/carbohydrate#loc -->
<g id="node16" class="node"><title>http://rdf.glyconavi.org/CarTN/CarTN10/GD3/carbohydrate#loc</title>
<a xlink:href="http://www.kanzaki.com/works/2009/pub/graph-draw?u=http%3A%2F%2Frdf.glyconavi.org%2FCarTN%2FCarTN10%2FGD3%2Fcarbohydrate%23loc" xlink:title="cartn:CarTN10/GD3/carbohydrate#loc">
<ellipse fill="#b7ffaf" stroke="#b7ffaf" cx="1056" cy="-247" rx="112.037" ry="18"/>
<text text-anchor="middle" x="1056" y="-244.5" font-family="gothic" font-size="10.00">cartn:CarTN10/GD3/carbohydrate#loc</text>
</a>
</g>
<!-- http://rdf.glyconavi.org/CarTN/CarTN10/GD3/carbohydrate&#45;&gt;http://rdf.glyconavi.org/CarTN/CarTN10/GD3/carbohydrate#loc -->
<g id="edge34" class="edge"><title>http://rdf.glyconavi.org/CarTN/CarTN10/GD3/carbohydrate&#45;&gt;http://rdf.glyconavi.org/CarTN/CarTN10/GD3/carbohydrate#loc</title>
<path fill="none" stroke="black" d="M701.95,-514.688C728.44,-504.802 759.073,-489.497 780,-467 794.952,-450.925 784.277,-438.137 798,-421 855.421,-349.294 950.382,-296.081 1007.68,-268.428"/>
<polygon fill="black" stroke="black" points="1009.36,-271.505 1016.89,-264.048 1006.36,-265.183 1009.36,-271.505"/>
<text text-anchor="middle" x="857" y="-425" font-family="gothic" font-size="10.00">faldo:location</text>
</g>
<!-- http://purl.jp/bio/12/glyco/glycan/saccharide -->
<g id="node17" class="node"><title>http://purl.jp/bio/12/glyco/glycan/saccharide</title>
<a xlink:href="http://www.kanzaki.com/works/2009/pub/graph-draw?u=http%3A%2F%2Fpurl.jp%2Fbio%2F12%2Fglyco%2Fglycan%2Fsaccharide" xlink:title="glycan:saccharide">
<ellipse fill="#b7ffaf" stroke="#b7ffaf" cx="1056" cy="-796" rx="57.9809" ry="18"/>
<text text-anchor="middle" x="1056" y="-793.5" font-family="gothic" font-size="10.00">glycan:saccharide</text>
</a>
</g>
<!-- http://rdf.glyconavi.org/CarTN/CarTN10/GD3/carbohydrate&#45;&gt;http://purl.jp/bio/12/glyco/glycan/saccharide -->
<g id="edge38" class="edge"><title>http://rdf.glyconavi.org/CarTN/CarTN10/GD3/carbohydrate&#45;&gt;http://purl.jp/bio/12/glyco/glycan/saccharide</title>
<path fill="none" stroke="black" d="M660.703,-548.119C684.577,-581.183 739.072,-652.12 798,-698 851.802,-739.889 869.936,-745.653 934,-769 953.092,-775.958 974.546,-781.439 994.078,-785.592"/>
<polygon fill="black" stroke="black" points="993.595,-789.066 1004.09,-787.644 995,-782.208 993.595,-789.066"/>
<text text-anchor="middle" x="857" y="-765" font-family="gothic" font-size="10.00">rdf:type</text>
</g>
<!-- http://rdf.glyconavi.org/CarTN/CarTN10/GD3/iupac_condensed -->
<g id="node18" class="node"><title>http://rdf.glyconavi.org/CarTN/CarTN10/GD3/iupac_condensed</title>
<a xlink:href="http://www.kanzaki.com/works/2009/pub/graph-draw?u=http%3A%2F%2Frdf.glyconavi.org%2FCarTN%2FCarTN10%2FGD3%2Fiupac_condensed" xlink:title="cartn:CarTN10/GD3/iupac_condensed">
<ellipse fill="#b7ffaf" stroke="#b7ffaf" cx="1056" cy="-644" rx="112.152" ry="18"/>
<text text-anchor="middle" x="1056" y="-641.5" font-family="gothic" font-size="10.00">cartn:CarTN10/GD3/iupac_condensed</text>
</a>
</g>
<!-- http://rdf.glyconavi.org/CarTN/CarTN10/GD3/carbohydrate&#45;&gt;http://rdf.glyconavi.org/CarTN/CarTN10/GD3/iupac_condensed -->
<g id="edge40" class="edge"><title>http://rdf.glyconavi.org/CarTN/CarTN10/GD3/carbohydrate&#45;&gt;http://rdf.glyconavi.org/CarTN/CarTN10/GD3/iupac_condensed</title>
<path fill="none" stroke="black" d="M693.331,-546.144C722.938,-556.431 762.542,-569.71 798,-580 859.102,-597.733 929.218,-614.927 980.919,-627.02"/>
<polygon fill="black" stroke="black" points="980.145,-630.434 990.678,-629.294 981.733,-623.616 980.145,-630.434"/>
<text text-anchor="middle" x="857" y="-614" font-family="gothic" font-size="10.00">glycan:has_glycosequence</text>
</g>
<!-- http://rdf.glyconavi.org/CarTN/CarTN10/GD3/carbohydrate_format -->
<g id="node19" class="node"><title>http://rdf.glyconavi.org/CarTN/CarTN10/GD3/carbohydrate_format</title>
<a xlink:href="http://www.kanzaki.com/works/2009/pub/graph-draw?u=http%3A%2F%2Frdf.glyconavi.org%2FCarTN%2FCarTN10%2FGD3%2Fcarbohydrate_format" xlink:title="cartn:CarTN10/GD3/carbohydrate_format">
<ellipse fill="#b7ffaf" stroke="#b7ffaf" cx="1056" cy="-742" rx="120.772" ry="18"/>
<text text-anchor="middle" x="1056" y="-739.5" font-family="gothic" font-size="10.00">cartn:CarTN10/GD3/carbohydrate_format</text>
</a>
</g>
<!-- http://rdf.glyconavi.org/CarTN/CarTN10/GD3/carbohydrate&#45;&gt;http://rdf.glyconavi.org/CarTN/CarTN10/GD3/carbohydrate_format -->
<g id="edge42" class="edge"><title>http://rdf.glyconavi.org/CarTN/CarTN10/GD3/carbohydrate&#45;&gt;http://rdf.glyconavi.org/CarTN/CarTN10/GD3/carbohydrate_format</title>
<path fill="none" stroke="black" d="M672.491,-547.523C701.61,-567.955 752.058,-602.1 798,-627 866.797,-664.287 950.068,-699.771 1003.04,-721.213"/>
<polygon fill="black" stroke="black" points="1001.98,-724.561 1012.57,-725.05 1004.6,-718.067 1001.98,-724.561"/>
<text text-anchor="middle" x="857" y="-685" font-family="gothic" font-size="10.00">glycan:has_glycosequence</text>
</g>
<!-- http://rdf.glyconavi.org/CarTN/CarTN10/GD3/wurcs -->
<g id="node20" class="node"><title>http://rdf.glyconavi.org/CarTN/CarTN10/GD3/wurcs</title>
<a xlink:href="http://www.kanzaki.com/works/2009/pub/graph-draw?u=http%3A%2F%2Frdf.glyconavi.org%2FCarTN%2FCarTN10%2FGD3%2Fwurcs" xlink:title="cartn:CarTN10/GD3/wurcs">
<ellipse fill="#b7ffaf" stroke="#b7ffaf" cx="1056" cy="-581" rx="81.9887" ry="18"/>
<text text-anchor="middle" x="1056" y="-578.5" font-family="gothic" font-size="10.00">cartn:CarTN10/GD3/wurcs</text>
</a>
</g>
<!-- http://rdf.glyconavi.org/CarTN/CarTN10/GD3/carbohydrate&#45;&gt;http://rdf.glyconavi.org/CarTN/CarTN10/GD3/wurcs -->
<g id="edge44" class="edge"><title>http://rdf.glyconavi.org/CarTN/CarTN10/GD3/carbohydrate&#45;&gt;http://rdf.glyconavi.org/CarTN/CarTN10/GD3/wurcs</title>
<path fill="none" stroke="black" d="M731.057,-540.382C802.009,-549.251 903.51,-561.939 974.122,-570.765"/>
<polygon fill="black" stroke="black" points="973.951,-574.271 984.308,-572.039 974.82,-567.325 973.951,-574.271"/>
<text text-anchor="middle" x="857" y="-567" font-family="gothic" font-size="10.00">glycan:has_glycosequence</text>
</g>
<!-- literal_6 -->
<g id="node21" class="node"><title>literal_6</title>
<polygon fill="#ffe666" stroke="#ffe666" points="1099,-545 1013,-545 1013,-509 1099,-509 1099,-545"/>
<text text-anchor="middle" x="1056" y="-524.5" font-family="gothic" font-size="10.00">saccharide GD3</text>
</g>
<!-- http://rdf.glyconavi.org/CarTN/CarTN10/GD3/carbohydrate&#45;&gt;literal_6 -->
<g id="edge46" class="edge"><title>http://rdf.glyconavi.org/CarTN/CarTN10/GD3/carbohydrate&#45;&gt;literal_6</title>
<path fill="none" stroke="black" d="M749.116,-529.257C829.146,-528.668 937.791,-527.869 1002.04,-527.397"/>
<polygon fill="black" stroke="black" points="1002.37,-530.895 1012.34,-527.321 1002.32,-523.895 1002.37,-530.895"/>
<text text-anchor="middle" x="857" y="-532" font-family="gothic" font-size="10.00">rdfs:label</text>
</g>
<!-- http://rdf.glyconavi.org/CarTN/CarTN10/GD3/aglycon&#45;&gt;http://rdf.glyconavi.org/CarTN/CarTN10/GD3/carbohydrate -->
<g id="edge50" class="edge"><title>http://rdf.glyconavi.org/CarTN/CarTN10/GD3/aglycon&#45;&gt;http://rdf.glyconavi.org/CarTN/CarTN10/GD3/carbohydrate</title>
<path fill="none" stroke="black" d="M1014.57,-406.908C986.975,-417.002 949.73,-429.682 916,-438 864.425,-450.718 848.195,-439.617 798,-457 789.352,-459.995 788.133,-462.805 780,-467 751.66,-481.618 719.36,-497.054 693.806,-508.988"/>
<polygon fill="black" stroke="black" points="692.305,-505.826 684.716,-513.218 695.259,-512.172 692.305,-505.826"/>
<text text-anchor="middle" x="857" y="-461" font-family="gothic" font-size="10.00">sio:is&#45;connect&#45;to</text>
</g>
<!-- http://rdf.glyconavi.org/CarTN/CarTN10/GD3/aglycon#loc -->
<g id="node22" class="node"><title>http://rdf.glyconavi.org/CarTN/CarTN10/GD3/aglycon#loc</title>
<a xlink:href="http://www.kanzaki.com/works/2009/pub/graph-draw?u=http%3A%2F%2Frdf.glyconavi.org%2FCarTN%2FCarTN10%2FGD3%2Faglycon%23loc" xlink:title="cartn:CarTN10/GD3/aglycon#loc">
<ellipse fill="#b7ffaf" stroke="#b7ffaf" cx="1450" cy="-283" rx="97.8783" ry="18"/>
<text text-anchor="middle" x="1450" y="-280.5" font-family="gothic" font-size="10.00">cartn:CarTN10/GD3/aglycon#loc</text>
</a>
</g>
<!-- http://rdf.glyconavi.org/CarTN/CarTN10/GD3/aglycon&#45;&gt;http://rdf.glyconavi.org/CarTN/CarTN10/GD3/aglycon#loc -->
<g id="edge48" class="edge"><title>http://rdf.glyconavi.org/CarTN/CarTN10/GD3/aglycon&#45;&gt;http://rdf.glyconavi.org/CarTN/CarTN10/GD3/aglycon#loc</title>
<path fill="none" stroke="black" d="M1098.3,-375.251C1125.93,-365.199 1162.9,-352.19 1196,-342 1248.75,-325.76 1262.25,-322.568 1316,-310 1333.94,-305.805 1353.32,-301.672 1371.62,-297.949"/>
<polygon fill="black" stroke="black" points="1372.54,-301.332 1381.65,-295.924 1371.16,-294.47 1372.54,-301.332"/>
<text text-anchor="middle" x="1247" y="-346" font-family="gothic" font-size="10.00">faldo:location</text>
</g>
<!-- http://purl.jp/bio/12/glyco/glycan/aglycon -->
<g id="node23" class="node"><title>http://purl.jp/bio/12/glyco/glycan/aglycon</title>
<a xlink:href="http://www.kanzaki.com/works/2009/pub/graph-draw?u=http%3A%2F%2Fpurl.jp%2Fbio%2F12%2Fglyco%2Fglycan%2Faglycon" xlink:title="glycan:aglycon">
<ellipse fill="#b7ffaf" stroke="#b7ffaf" cx="1450" cy="-337" rx="49.9784" ry="18"/>
<text text-anchor="middle" x="1450" y="-334.5" font-family="gothic" font-size="10.00">glycan:aglycon</text>
</a>
</g>
<!-- http://rdf.glyconavi.org/CarTN/CarTN10/GD3/aglycon&#45;&gt;http://purl.jp/bio/12/glyco/glycan/aglycon -->
<g id="edge52" class="edge"><title>http://rdf.glyconavi.org/CarTN/CarTN10/GD3/aglycon&#45;&gt;http://purl.jp/bio/12/glyco/glycan/aglycon</title>
<path fill="none" stroke="black" d="M1128.72,-381.033C1204.91,-370.591 1323.02,-354.404 1392.81,-344.838"/>
<polygon fill="black" stroke="black" points="1393.31,-348.302 1402.75,-343.476 1392.36,-341.367 1393.31,-348.302"/>
<text text-anchor="middle" x="1247" y="-374" font-family="gothic" font-size="10.00">rdf:type</text>
</g>
<!-- literal_7 -->
<g id="node24" class="node"><title>literal_7</title>
<polygon fill="#ffe666" stroke="#ffe666" points="1477,-463 1423,-463 1423,-427 1477,-427 1477,-463"/>
<text text-anchor="middle" x="1450" y="-442.5" font-family="gothic" font-size="10.00">Cer</text>
</g>
<!-- http://rdf.glyconavi.org/CarTN/CarTN10/GD3/aglycon&#45;&gt;literal_7 -->
<g id="edge54" class="edge"><title>http://rdf.glyconavi.org/CarTN/CarTN10/GD3/aglycon&#45;&gt;literal_7</title>
<path fill="none" stroke="black" d="M1128.72,-400.967C1212.76,-412.486 1347.8,-430.993 1412.75,-439.895"/>
<polygon fill="black" stroke="black" points="1412.54,-443.399 1422.92,-441.289 1413.49,-436.464 1412.54,-443.399"/>
<text text-anchor="middle" x="1247" y="-426" font-family="gothic" font-size="10.00">sio:SIO_000300</text>
</g>
<!-- literal_8 -->
<g id="node25" class="node"><title>literal_8</title>
<polygon fill="#ffe666" stroke="#ffe666" points="1520,-409 1380,-409 1380,-373 1520,-373 1520,-409"/>
<text text-anchor="middle" x="1450" y="-388.5" font-family="gothic" font-size="10.00">Cer is an aglycon of GD3 ...</text>
</g>
<!-- http://rdf.glyconavi.org/CarTN/CarTN10/GD3/aglycon&#45;&gt;literal_8 -->
<g id="edge56" class="edge"><title>http://rdf.glyconavi.org/CarTN/CarTN10/GD3/aglycon&#45;&gt;literal_8</title>
<path fill="none" stroke="black" d="M1143.44,-391C1211.01,-391 1303.8,-391 1369.55,-391"/>
<polygon fill="black" stroke="black" points="1369.86,-394.5 1379.86,-391 1369.86,-387.5 1369.86,-394.5"/>
<text text-anchor="middle" x="1247" y="-395" font-family="gothic" font-size="10.00">rdfs:label</text>
</g>
<!-- http://rdf.glyconavi.org/CarTN/CarTN10/GD3/carbohydrate#loc&#45;&gt;http://rdf.glyconavi.org/CarTN/CarTN10/GD3/aglycon#loc -->
<g id="edge62" class="edge"><title>http://rdf.glyconavi.org/CarTN/CarTN10/GD3/carbohydrate#loc&#45;&gt;http://rdf.glyconavi.org/CarTN/CarTN10/GD3/aglycon#loc</title>
<path fill="none" stroke="black" d="M1158.51,-254.296C1201.61,-257.558 1252.27,-261.649 1298,-266 1317.13,-267.821 1337.6,-269.971 1357.11,-272.118"/>
<polygon fill="black" stroke="black" points="1356.89,-275.616 1367.22,-273.24 1357.67,-268.658 1356.89,-275.616"/>
<text text-anchor="middle" x="1247" y="-270" font-family="gothic" font-size="10.00">sio:direct&#45;connect&#45;to</text>
</g>
<!-- http://biohackathon.org/resource/faldoExactPosition -->
<g id="node26" class="node"><title>http://biohackathon.org/resource/faldoExactPosition</title>
<a xlink:href="http://www.kanzaki.com/works/2009/pub/graph-draw?u=http%3A%2F%2Fbiohackathon.org%2Fresource%2FfaldoExactPosition" xlink:title="faldo:ExactPosition">
<ellipse fill="#b7ffaf" stroke="#b7ffaf" cx="1450" cy="-175" rx="62.1743" ry="18"/>
<text text-anchor="middle" x="1450" y="-172.5" font-family="gothic" font-size="10.00">faldo:ExactPosition</text>
</a>
</g>
<!-- http://rdf.glyconavi.org/CarTN/CarTN10/GD3/carbohydrate#loc&#45;&gt;http://biohackathon.org/resource/faldoExactPosition -->
<g id="edge58" class="edge"><title>http://rdf.glyconavi.org/CarTN/CarTN10/GD3/carbohydrate#loc&#45;&gt;http://biohackathon.org/resource/faldoExactPosition</title>
<path fill="none" stroke="black" d="M1108.46,-230.996C1134.58,-223.482 1166.75,-214.901 1196,-209 1258.15,-196.463 1329.81,-187.349 1381.14,-181.731"/>
<polygon fill="black" stroke="black" points="1381.55,-185.206 1391.12,-180.654 1380.8,-178.246 1381.55,-185.206"/>
<text text-anchor="middle" x="1247" y="-213" font-family="gothic" font-size="10.00">rdf:type</text>
</g>
<!-- literal_9 -->
<g id="node27" class="node"><title>literal_9</title>
<polygon fill="#ffe666" stroke="#ffe666" points="1491,-247 1409,-247 1409,-211 1491,-211 1491,-247"/>
<text text-anchor="middle" x="1450" y="-226.5" font-family="gothic" font-size="10.00">1 ^^xsd:integer</text>
</g>
<!-- http://rdf.glyconavi.org/CarTN/CarTN10/GD3/carbohydrate#loc&#45;&gt;literal_9 -->
<g id="edge60" class="edge"><title>http://rdf.glyconavi.org/CarTN/CarTN10/GD3/carbohydrate#loc&#45;&gt;literal_9</title>
<path fill="none" stroke="black" d="M1140.62,-235.11C1158.85,-233.001 1178.04,-231.122 1196,-230 1266,-225.627 1347.06,-226.302 1398.42,-227.44"/>
<polygon fill="black" stroke="black" points="1398.52,-230.943 1408.6,-227.68 1398.68,-223.945 1398.52,-230.943"/>
<text text-anchor="middle" x="1247" y="-234" font-family="gothic" font-size="10.00">faldo:position</text>
</g>
<!-- http://purl.jp/bio/12/glyco/glycan/glycosequence -->
<g id="node28" class="node"><title>http://purl.jp/bio/12/glyco/glycan/glycosequence</title>
<a xlink:href="http://www.kanzaki.com/works/2009/pub/graph-draw?u=http%3A%2F%2Fpurl.jp%2Fbio%2F12%2Fglyco%2Fglycan%2Fglycosequence" xlink:title="glycan:glycosequence">
<ellipse fill="#b7ffaf" stroke="#b7ffaf" cx="1450" cy="-661" rx="69.0609" ry="18"/>
<text text-anchor="middle" x="1450" y="-658.5" font-family="gothic" font-size="10.00">glycan:glycosequence</text>
</a>
</g>
<!-- http://rdf.glyconavi.org/CarTN/CarTN10/GD3/iupac_condensed&#45;&gt;http://purl.jp/bio/12/glyco/glycan/glycosequence -->
<g id="edge64" class="edge"><title>http://rdf.glyconavi.org/CarTN/CarTN10/GD3/iupac_condensed&#45;&gt;http://purl.jp/bio/12/glyco/glycan/glycosequence</title>
<path fill="none" stroke="black" d="M1164.71,-648.69C1230.16,-651.515 1312.02,-655.046 1371.24,-657.602"/>
<polygon fill="black" stroke="black" points="1371.14,-661.101 1381.29,-658.035 1371.45,-654.107 1371.14,-661.101"/>
<text text-anchor="middle" x="1247" y="-658" font-family="gothic" font-size="10.00">rdf:type</text>
</g>
<!-- http://purl.jp/bio/12/glyco/glycan/carbohydrate_format_iupac_condensed -->
<g id="node29" class="node"><title>http://purl.jp/bio/12/glyco/glycan/carbohydrate_format_iupac_condensed</title>
<a xlink:href="http://www.kanzaki.com/works/2009/pub/graph-draw?u=http%3A%2F%2Fpurl.jp%2Fbio%2F12%2Fglyco%2Fglycan%2Fcarbohydrate_format_iupac_condensed" xlink:title="glycan:carbohydrate_format_iupac_condensed">
<ellipse fill="#b7ffaf" stroke="#b7ffaf" cx="1450" cy="-715" rx="134.198" ry="18"/>
<text text-anchor="middle" x="1450" y="-712.5" font-family="gothic" font-size="10.00">glycan:carbohydrate_format_iupac_condensed</text>
</a>
</g>
<!-- http://rdf.glyconavi.org/CarTN/CarTN10/GD3/iupac_condensed&#45;&gt;http://purl.jp/bio/12/glyco/glycan/carbohydrate_format_iupac_condensed -->
<g id="edge66" class="edge"><title>http://rdf.glyconavi.org/CarTN/CarTN10/GD3/iupac_condensed&#45;&gt;http://purl.jp/bio/12/glyco/glycan/carbohydrate_format_iupac_condensed</title>
<path fill="none" stroke="black" d="M1127.17,-657.997C1149.22,-662.26 1173.6,-666.9 1196,-671 1248.92,-680.685 1308.14,-690.975 1356.08,-699.167"/>
<polygon fill="black" stroke="black" points="1355.68,-702.651 1366.13,-700.883 1356.86,-695.75 1355.68,-702.651"/>
<text text-anchor="middle" x="1247" y="-705" font-family="gothic" font-size="10.00">glycan:in_carbohydrate</text>
<text text-anchor="middle" x="1247" y="-692" font-family="gothic" font-size="10.00">_format</text>
</g>
<!-- literal_10 -->
<g id="node30" class="node"><title>literal_10</title>
<polygon fill="#ffe666" stroke="#ffe666" points="1532,-625 1368,-625 1368,-589 1532,-589 1532,-625"/>
<text text-anchor="middle" x="1450" y="-605.5" font-family="gothic" font-size="10.00">Neu5Acα2&#45;8Neu5Acα2&#45;3Galβ1&#45; ...</text>
</g>
<!-- http://rdf.glyconavi.org/CarTN/CarTN10/GD3/iupac_condensed&#45;&gt;literal_10 -->
<g id="edge68" class="edge"><title>http://rdf.glyconavi.org/CarTN/CarTN10/GD3/iupac_condensed&#45;&gt;literal_10</title>
<path fill="none" stroke="black" d="M1153.14,-634.878C1215.41,-629.03 1295.78,-621.482 1357.19,-615.716"/>
<polygon fill="black" stroke="black" points="1357.64,-619.189 1367.26,-614.77 1356.98,-612.22 1357.64,-619.189"/>
<text text-anchor="middle" x="1247" y="-633" font-family="gothic" font-size="10.00">glycan:has_sequence</text>
</g>
<!-- http://rdf.glyconavi.org/CarTN/CarTN10/GD3/carbohydrate_format&#45;&gt;http://purl.jp/bio/12/glyco/glycan/glycosequence -->
<g id="edge70" class="edge"><title>http://rdf.glyconavi.org/CarTN/CarTN10/GD3/carbohydrate_format&#45;&gt;http://purl.jp/bio/12/glyco/glycan/glycosequence</title>
<path fill="none" stroke="black" d="M1177.03,-739.982C1226.79,-737.126 1277.54,-730.962 1298,-718 1311.14,-709.68 1303.3,-696.966 1316,-688 1332.1,-676.638 1351.85,-669.806 1371.19,-665.761"/>
<polygon fill="black" stroke="black" points="1372.05,-669.16 1381.25,-663.89 1370.77,-662.278 1372.05,-669.16"/>
<text text-anchor="middle" x="1247" y="-742" font-family="gothic" font-size="10.00">rdf:type</text>
</g>
<!-- http://purl.jp/bio/12/glyco/glycan/carbohydrate_format -->
<g id="node31" class="node"><title>http://purl.jp/bio/12/glyco/glycan/carbohydrate_format</title>
<a xlink:href="http://www.kanzaki.com/works/2009/pub/graph-draw?u=http%3A%2F%2Fpurl.jp%2Fbio%2F12%2Fglyco%2Fglycan%2Fcarbohydrate_format" xlink:title="glycan:carbohydrate_format">
<ellipse fill="#b7ffaf" stroke="#b7ffaf" cx="1450" cy="-778" rx="83.8364" ry="18"/>
<text text-anchor="middle" x="1450" y="-775.5" font-family="gothic" font-size="10.00">glycan:carbohydrate_format</text>
</a>
</g>
<!-- http://rdf.glyconavi.org/CarTN/CarTN10/GD3/carbohydrate_format&#45;&gt;http://purl.jp/bio/12/glyco/glycan/carbohydrate_format -->
<g id="edge72" class="edge"><title>http://rdf.glyconavi.org/CarTN/CarTN10/GD3/carbohydrate_format&#45;&gt;http://purl.jp/bio/12/glyco/glycan/carbohydrate_format</title>
<path fill="none" stroke="black" d="M1156.55,-752.217C1169.81,-753.517 1183.23,-754.809 1196,-756 1250.72,-761.106 1312.12,-766.434 1360.83,-770.568"/>
<polygon fill="black" stroke="black" points="1360.77,-774.075 1371.03,-771.432 1361.36,-767.1 1360.77,-774.075"/>
<text text-anchor="middle" x="1247" y="-781" font-family="gothic" font-size="10.00">glycan:in_carbohydrate</text>
<text text-anchor="middle" x="1247" y="-768" font-family="gothic" font-size="10.00">_format</text>
</g>
<!-- literal_11 -->
<g id="node32" class="node"><title>literal_11</title>
<polygon fill="#ffe666" stroke="#ffe666" points="1530,-850 1370,-850 1370,-814 1530,-814 1530,-850"/>
<text text-anchor="middle" x="1450" y="-829.5" font-family="gothic" font-size="10.00">Neu5Ac(a2&#45;8)Neu5Ac(a2&#45;3)Ga ...</text>
</g>
<!-- http://rdf.glyconavi.org/CarTN/CarTN10/GD3/carbohydrate_format&#45;&gt;literal_11 -->
<g id="edge74" class="edge"><title>http://rdf.glyconavi.org/CarTN/CarTN10/GD3/carbohydrate_format&#45;&gt;literal_11</title>
<path fill="none" stroke="black" d="M1146.36,-754.08C1157.54,-757.815 1168.4,-762.677 1178,-769 1189.44,-776.529 1184.31,-786.871 1196,-794 1244.62,-823.655 1307.96,-833.177 1359.22,-835.274"/>
<polygon fill="black" stroke="black" points="1359.2,-838.775 1369.31,-835.598 1359.43,-831.779 1359.2,-838.775"/>
<text text-anchor="middle" x="1247" y="-832" font-family="gothic" font-size="10.00">glycan:has_sequence</text>
</g>
<!-- http://rdf.glyconavi.org/CarTN/CarTN10/GD3/wurcs&#45;&gt;http://purl.jp/bio/12/glyco/glycan/glycosequence -->
<g id="edge76" class="edge"><title>http://rdf.glyconavi.org/CarTN/CarTN10/GD3/wurcs&#45;&gt;http://purl.jp/bio/12/glyco/glycan/glycosequence</title>
<path fill="none" stroke="black" d="M1128.04,-572.124C1179.19,-569.442 1247.47,-573.526 1298,-605 1310.88,-613.02 1303.54,-625.346 1316,-634 1332.18,-645.24 1351.96,-652.029 1371.31,-656.073"/>
<polygon fill="black" stroke="black" points="1370.89,-659.555 1381.36,-657.946 1372.17,-652.673 1370.89,-659.555"/>
<text text-anchor="middle" x="1247" y="-609" font-family="gothic" font-size="10.00">rdf:type</text>
</g>
<!-- http://purl.jp/bio/12/glyco/glycan/carbohydrate_format_wurcs -->
<g id="node33" class="node"><title>http://purl.jp/bio/12/glyco/glycan/carbohydrate_format_wurcs</title>
<a xlink:href="http://www.kanzaki.com/works/2009/pub/graph-draw?u=http%3A%2F%2Fpurl.jp%2Fbio%2F12%2Fglyco%2Fglycan%2Fcarbohydrate_format_wurcs" xlink:title="glycan:carbohydrate_format_wurcs">
<ellipse fill="#b7ffaf" stroke="#b7ffaf" cx="1450" cy="-499" rx="104.034" ry="18"/>
<text text-anchor="middle" x="1450" y="-496.5" font-family="gothic" font-size="10.00">glycan:carbohydrate_format_wurcs</text>
</a>
</g>
<!-- http://rdf.glyconavi.org/CarTN/CarTN10/GD3/wurcs&#45;&gt;http://purl.jp/bio/12/glyco/glycan/carbohydrate_format_wurcs -->
<g id="edge78" class="edge"><title>http://rdf.glyconavi.org/CarTN/CarTN10/GD3/wurcs&#45;&gt;http://purl.jp/bio/12/glyco/glycan/carbohydrate_format_wurcs</title>
<path fill="none" stroke="black" d="M1133.72,-574.9C1149.61,-570.75 1165.33,-564.206 1178,-554 1192.87,-542.024 1180.25,-525.789 1196,-515 1246.68,-480.279 1317.24,-478.554 1371.13,-484.225"/>
<polygon fill="black" stroke="black" points="1370.99,-487.733 1381.33,-485.407 1371.8,-480.779 1370.99,-487.733"/>
<text text-anchor="middle" x="1247" y="-532" font-family="gothic" font-size="10.00">glycan:in_carbohydrate</text>
<text text-anchor="middle" x="1247" y="-519" font-family="gothic" font-size="10.00">_format</text>
</g>
<!-- literal_12 -->
<g id="node34" class="node"><title>literal_12</title>
<polygon fill="#ffe666" stroke="#ffe666" points="1531,-571 1369,-571 1369,-535 1531,-535 1531,-571"/>
<text text-anchor="middle" x="1450" y="-550.5" font-family="gothic" font-size="10.00">WURCS=2.0/3,4,3/[12122h&#45;1b ...</text>
</g>
<!-- http://rdf.glyconavi.org/CarTN/CarTN10/GD3/wurcs&#45;&gt;literal_12 -->
<g id="edge80" class="edge"><title>http://rdf.glyconavi.org/CarTN/CarTN10/GD3/wurcs&#45;&gt;literal_12</title>
<path fill="none" stroke="black" d="M1114.03,-568.169C1134.27,-563.69 1157.14,-558.626 1178,-554 1186,-552.226 1187.85,-550.894 1196,-550 1249.51,-544.126 1309.74,-544.536 1358.12,-546.572"/>
<polygon fill="black" stroke="black" points="1358.1,-550.075 1368.25,-547.03 1358.42,-543.083 1358.1,-550.075"/>
<text text-anchor="middle" x="1247" y="-554" font-family="gothic" font-size="10.00">glycan:has_sequence</text>
</g>
</g>
</svg>
